<mxfile host="app.diagrams.net" modified="2023-09-11T19:55:51.775Z" agent="Mozilla/5.0 (X11; Linux x86_64; rv:109.0) Gecko/20100101 Firefox/113.0" etag="v53I2u8tvv2htESdm1k3" version="21.7.4" type="device">
  <diagram name="Page-1" id="c7488fd3-1785-93aa-aadb-54a6760d102a">
    <mxGraphModel dx="1434" dy="770" grid="1" gridSize="10" guides="1" tooltips="1" connect="1" arrows="1" fold="1" page="1" pageScale="1" pageWidth="1100" pageHeight="850" background="none" math="0" shadow="0">
      <root>
        <mxCell id="0" />
        <mxCell id="1" parent="0" />
        <mxCell id="kwaBSG2v5Bp63q4YvGtv-10" style="edgeStyle=orthogonalEdgeStyle;rounded=0;orthogonalLoop=1;jettySize=auto;html=1;exitX=1;exitY=0.5;exitDx=0;exitDy=0;entryX=0.5;entryY=0;entryDx=0;entryDy=0;" edge="1" parent="1" source="kwaBSG2v5Bp63q4YvGtv-2" target="kwaBSG2v5Bp63q4YvGtv-8">
          <mxGeometry relative="1" as="geometry" />
        </mxCell>
        <mxCell id="kwaBSG2v5Bp63q4YvGtv-2" value="possui cadastro?" style="rounded=0;whiteSpace=wrap;html=1;" vertex="1" parent="1">
          <mxGeometry x="250" y="160" width="120" height="40" as="geometry" />
        </mxCell>
        <mxCell id="kwaBSG2v5Bp63q4YvGtv-6" style="edgeStyle=orthogonalEdgeStyle;rounded=0;orthogonalLoop=1;jettySize=auto;html=1;entryX=0;entryY=0.5;entryDx=0;entryDy=0;exitX=1;exitY=0.5;exitDx=0;exitDy=0;" edge="1" parent="1" source="kwaBSG2v5Bp63q4YvGtv-79" target="kwaBSG2v5Bp63q4YvGtv-2">
          <mxGeometry relative="1" as="geometry">
            <mxPoint x="210" y="160" as="sourcePoint" />
          </mxGeometry>
        </mxCell>
        <mxCell id="kwaBSG2v5Bp63q4YvGtv-13" style="edgeStyle=orthogonalEdgeStyle;rounded=0;orthogonalLoop=1;jettySize=auto;html=1;exitX=0;exitY=0.5;exitDx=0;exitDy=0;entryX=0.5;entryY=0;entryDx=0;entryDy=0;" edge="1" parent="1" source="kwaBSG2v5Bp63q4YvGtv-8" target="kwaBSG2v5Bp63q4YvGtv-11">
          <mxGeometry relative="1" as="geometry" />
        </mxCell>
        <mxCell id="kwaBSG2v5Bp63q4YvGtv-22" style="edgeStyle=orthogonalEdgeStyle;rounded=0;orthogonalLoop=1;jettySize=auto;html=1;exitX=1;exitY=0.5;exitDx=0;exitDy=0;entryX=0.5;entryY=0;entryDx=0;entryDy=0;" edge="1" parent="1" source="kwaBSG2v5Bp63q4YvGtv-8" target="kwaBSG2v5Bp63q4YvGtv-20">
          <mxGeometry relative="1" as="geometry" />
        </mxCell>
        <mxCell id="kwaBSG2v5Bp63q4YvGtv-11" value="realizar cadastro" style="rounded=0;whiteSpace=wrap;html=1;" vertex="1" parent="1">
          <mxGeometry x="300" y="320" width="120" height="40" as="geometry" />
        </mxCell>
        <mxCell id="kwaBSG2v5Bp63q4YvGtv-20" value="faz cadastro" style="rounded=0;whiteSpace=wrap;html=1;" vertex="1" parent="1">
          <mxGeometry x="500" y="320" width="120" height="40" as="geometry" />
        </mxCell>
        <mxCell id="kwaBSG2v5Bp63q4YvGtv-23" value="" style="group" vertex="1" connectable="0" parent="1">
          <mxGeometry x="400" y="230" width="120" height="50" as="geometry" />
        </mxCell>
        <mxCell id="kwaBSG2v5Bp63q4YvGtv-8" value="" style="rhombus;whiteSpace=wrap;html=1;" vertex="1" parent="kwaBSG2v5Bp63q4YvGtv-23">
          <mxGeometry x="40" y="10" width="40" height="40" as="geometry" />
        </mxCell>
        <mxCell id="kwaBSG2v5Bp63q4YvGtv-15" value="não" style="text;html=1;strokeColor=none;fillColor=none;align=center;verticalAlign=middle;whiteSpace=wrap;rounded=0;" vertex="1" parent="kwaBSG2v5Bp63q4YvGtv-23">
          <mxGeometry width="60" height="30" as="geometry" />
        </mxCell>
        <mxCell id="kwaBSG2v5Bp63q4YvGtv-18" value="sim" style="text;html=1;strokeColor=none;fillColor=none;align=center;verticalAlign=middle;whiteSpace=wrap;rounded=0;" vertex="1" parent="kwaBSG2v5Bp63q4YvGtv-23">
          <mxGeometry x="60" width="60" height="30" as="geometry" />
        </mxCell>
        <mxCell id="kwaBSG2v5Bp63q4YvGtv-56" style="edgeStyle=orthogonalEdgeStyle;rounded=0;orthogonalLoop=1;jettySize=auto;html=1;" edge="1" parent="1" source="kwaBSG2v5Bp63q4YvGtv-24" target="kwaBSG2v5Bp63q4YvGtv-57">
          <mxGeometry relative="1" as="geometry">
            <mxPoint x="560" y="550" as="targetPoint" />
          </mxGeometry>
        </mxCell>
        <mxCell id="kwaBSG2v5Bp63q4YvGtv-24" value="escolher produto" style="rounded=0;whiteSpace=wrap;html=1;" vertex="1" parent="1">
          <mxGeometry x="500" y="440" width="120" height="40" as="geometry" />
        </mxCell>
        <mxCell id="kwaBSG2v5Bp63q4YvGtv-26" value="" style="endArrow=classic;html=1;rounded=0;entryX=0.5;entryY=0;entryDx=0;entryDy=0;exitX=0.5;exitY=1;exitDx=0;exitDy=0;" edge="1" parent="1" source="kwaBSG2v5Bp63q4YvGtv-20" target="kwaBSG2v5Bp63q4YvGtv-24">
          <mxGeometry width="50" height="50" relative="1" as="geometry">
            <mxPoint x="520" y="280" as="sourcePoint" />
            <mxPoint x="570" y="420" as="targetPoint" />
          </mxGeometry>
        </mxCell>
        <mxCell id="kwaBSG2v5Bp63q4YvGtv-33" style="edgeStyle=orthogonalEdgeStyle;rounded=0;orthogonalLoop=1;jettySize=auto;html=1;exitX=0;exitY=0.5;exitDx=0;exitDy=0;entryX=1;entryY=0.5;entryDx=0;entryDy=0;" edge="1" parent="1" source="kwaBSG2v5Bp63q4YvGtv-27" target="kwaBSG2v5Bp63q4YvGtv-43">
          <mxGeometry relative="1" as="geometry">
            <mxPoint x="260" y="440" as="targetPoint" />
          </mxGeometry>
        </mxCell>
        <mxCell id="kwaBSG2v5Bp63q4YvGtv-28" value="" style="endArrow=classic;html=1;rounded=0;exitX=0.5;exitY=1;exitDx=0;exitDy=0;entryX=0.5;entryY=0;entryDx=0;entryDy=0;" edge="1" parent="1" source="kwaBSG2v5Bp63q4YvGtv-11" target="kwaBSG2v5Bp63q4YvGtv-27">
          <mxGeometry width="50" height="50" relative="1" as="geometry">
            <mxPoint x="520" y="280" as="sourcePoint" />
            <mxPoint x="570" y="230" as="targetPoint" />
            <Array as="points">
              <mxPoint x="360" y="390" />
            </Array>
          </mxGeometry>
        </mxCell>
        <mxCell id="kwaBSG2v5Bp63q4YvGtv-38" value="" style="group" vertex="1" connectable="0" parent="1">
          <mxGeometry x="300" y="410" width="120" height="60" as="geometry" />
        </mxCell>
        <mxCell id="kwaBSG2v5Bp63q4YvGtv-27" value="" style="rhombus;whiteSpace=wrap;html=1;" vertex="1" parent="kwaBSG2v5Bp63q4YvGtv-38">
          <mxGeometry x="40" y="10" width="40" height="40" as="geometry" />
        </mxCell>
        <mxCell id="kwaBSG2v5Bp63q4YvGtv-36" value="sim" style="text;html=1;strokeColor=none;fillColor=none;align=center;verticalAlign=middle;whiteSpace=wrap;rounded=0;" vertex="1" parent="kwaBSG2v5Bp63q4YvGtv-38">
          <mxGeometry x="60" y="30" width="60" height="30" as="geometry" />
        </mxCell>
        <mxCell id="kwaBSG2v5Bp63q4YvGtv-37" value="não" style="text;html=1;strokeColor=none;fillColor=none;align=center;verticalAlign=middle;whiteSpace=wrap;rounded=0;" vertex="1" parent="kwaBSG2v5Bp63q4YvGtv-38">
          <mxGeometry width="60" height="30" as="geometry" />
        </mxCell>
        <mxCell id="kwaBSG2v5Bp63q4YvGtv-55" style="edgeStyle=orthogonalEdgeStyle;rounded=0;orthogonalLoop=1;jettySize=auto;html=1;entryX=0.5;entryY=0;entryDx=0;entryDy=0;" edge="1" parent="1" source="kwaBSG2v5Bp63q4YvGtv-39" target="kwaBSG2v5Bp63q4YvGtv-52">
          <mxGeometry relative="1" as="geometry" />
        </mxCell>
        <mxCell id="kwaBSG2v5Bp63q4YvGtv-39" value="finalizar cadastro" style="rounded=0;whiteSpace=wrap;html=1;" vertex="1" parent="1">
          <mxGeometry x="300" y="520" width="120" height="40" as="geometry" />
        </mxCell>
        <mxCell id="kwaBSG2v5Bp63q4YvGtv-40" style="edgeStyle=orthogonalEdgeStyle;rounded=0;orthogonalLoop=1;jettySize=auto;html=1;entryX=0.5;entryY=0;entryDx=0;entryDy=0;" edge="1" parent="1" source="kwaBSG2v5Bp63q4YvGtv-27" target="kwaBSG2v5Bp63q4YvGtv-39">
          <mxGeometry relative="1" as="geometry" />
        </mxCell>
        <mxCell id="kwaBSG2v5Bp63q4YvGtv-50" value="" style="group" vertex="1" connectable="0" parent="1">
          <mxGeometry x="220" y="420" width="40" height="40" as="geometry" />
        </mxCell>
        <mxCell id="kwaBSG2v5Bp63q4YvGtv-43" value="" style="ellipse;whiteSpace=wrap;html=1;aspect=fixed;" vertex="1" parent="kwaBSG2v5Bp63q4YvGtv-50">
          <mxGeometry width="40" height="40" as="geometry" />
        </mxCell>
        <mxCell id="kwaBSG2v5Bp63q4YvGtv-48" value="" style="shape=waypoint;sketch=0;fillStyle=solid;size=6;pointerEvents=1;points=[];fillColor=none;resizable=0;rotatable=0;perimeter=centerPerimeter;snapToPoint=1;" vertex="1" parent="kwaBSG2v5Bp63q4YvGtv-50">
          <mxGeometry x="10" y="10" width="20" height="20" as="geometry" />
        </mxCell>
        <mxCell id="kwaBSG2v5Bp63q4YvGtv-51" value="" style="group" vertex="1" connectable="0" parent="1">
          <mxGeometry x="340" y="620" width="40" height="40" as="geometry" />
        </mxCell>
        <mxCell id="kwaBSG2v5Bp63q4YvGtv-52" value="" style="ellipse;whiteSpace=wrap;html=1;aspect=fixed;" vertex="1" parent="kwaBSG2v5Bp63q4YvGtv-51">
          <mxGeometry width="40" height="40" as="geometry" />
        </mxCell>
        <mxCell id="kwaBSG2v5Bp63q4YvGtv-53" value="" style="shape=waypoint;sketch=0;fillStyle=solid;size=6;pointerEvents=1;points=[];fillColor=none;resizable=0;rotatable=0;perimeter=centerPerimeter;snapToPoint=1;" vertex="1" parent="kwaBSG2v5Bp63q4YvGtv-51">
          <mxGeometry x="10" y="10" width="20" height="20" as="geometry" />
        </mxCell>
        <mxCell id="kwaBSG2v5Bp63q4YvGtv-58" style="edgeStyle=orthogonalEdgeStyle;rounded=0;orthogonalLoop=1;jettySize=auto;html=1;" edge="1" parent="1" source="kwaBSG2v5Bp63q4YvGtv-57" target="kwaBSG2v5Bp63q4YvGtv-59">
          <mxGeometry relative="1" as="geometry">
            <mxPoint x="680" y="560" as="targetPoint" />
          </mxGeometry>
        </mxCell>
        <mxCell id="kwaBSG2v5Bp63q4YvGtv-57" value="solicitar confirmação compra" style="rounded=0;whiteSpace=wrap;html=1;" vertex="1" parent="1">
          <mxGeometry x="500" y="540" width="120" height="40" as="geometry" />
        </mxCell>
        <mxCell id="kwaBSG2v5Bp63q4YvGtv-62" style="edgeStyle=orthogonalEdgeStyle;rounded=0;orthogonalLoop=1;jettySize=auto;html=1;" edge="1" parent="1" source="kwaBSG2v5Bp63q4YvGtv-59" target="kwaBSG2v5Bp63q4YvGtv-63">
          <mxGeometry relative="1" as="geometry">
            <mxPoint x="705" y="630" as="targetPoint" />
          </mxGeometry>
        </mxCell>
        <mxCell id="kwaBSG2v5Bp63q4YvGtv-65" style="edgeStyle=orthogonalEdgeStyle;rounded=0;orthogonalLoop=1;jettySize=auto;html=1;entryX=0;entryY=0.5;entryDx=0;entryDy=0;" edge="1" parent="1" source="kwaBSG2v5Bp63q4YvGtv-59" target="kwaBSG2v5Bp63q4YvGtv-66">
          <mxGeometry relative="1" as="geometry">
            <mxPoint x="705" y="500" as="targetPoint" />
          </mxGeometry>
        </mxCell>
        <mxCell id="kwaBSG2v5Bp63q4YvGtv-59" value="" style="rhombus;whiteSpace=wrap;html=1;" vertex="1" parent="1">
          <mxGeometry x="685" y="540" width="40" height="40" as="geometry" />
        </mxCell>
        <mxCell id="kwaBSG2v5Bp63q4YvGtv-75" style="edgeStyle=orthogonalEdgeStyle;rounded=0;orthogonalLoop=1;jettySize=auto;html=1;entryX=0.5;entryY=0;entryDx=0;entryDy=0;" edge="1" parent="1" source="kwaBSG2v5Bp63q4YvGtv-63" target="kwaBSG2v5Bp63q4YvGtv-77">
          <mxGeometry relative="1" as="geometry">
            <mxPoint x="705" y="730" as="targetPoint" />
          </mxGeometry>
        </mxCell>
        <mxCell id="kwaBSG2v5Bp63q4YvGtv-63" value="aguardar afirmação da compra" style="rounded=0;whiteSpace=wrap;html=1;" vertex="1" parent="1">
          <mxGeometry x="650" y="640" width="110" height="40" as="geometry" />
        </mxCell>
        <mxCell id="kwaBSG2v5Bp63q4YvGtv-64" value="não" style="text;html=1;strokeColor=none;fillColor=none;align=center;verticalAlign=middle;whiteSpace=wrap;rounded=0;" vertex="1" parent="1">
          <mxGeometry x="700" y="600" width="60" height="30" as="geometry" />
        </mxCell>
        <mxCell id="kwaBSG2v5Bp63q4YvGtv-68" style="edgeStyle=orthogonalEdgeStyle;rounded=0;orthogonalLoop=1;jettySize=auto;html=1;" edge="1" parent="1" source="kwaBSG2v5Bp63q4YvGtv-66" target="kwaBSG2v5Bp63q4YvGtv-69">
          <mxGeometry relative="1" as="geometry">
            <mxPoint x="785" y="390" as="targetPoint" />
          </mxGeometry>
        </mxCell>
        <mxCell id="kwaBSG2v5Bp63q4YvGtv-66" value="confirma compra" style="rounded=0;whiteSpace=wrap;html=1;" vertex="1" parent="1">
          <mxGeometry x="725" y="460" width="120" height="40" as="geometry" />
        </mxCell>
        <mxCell id="kwaBSG2v5Bp63q4YvGtv-67" value="sim" style="text;html=1;strokeColor=none;fillColor=none;align=center;verticalAlign=middle;whiteSpace=wrap;rounded=0;" vertex="1" parent="1">
          <mxGeometry x="665" y="450" width="60" height="30" as="geometry" />
        </mxCell>
        <mxCell id="kwaBSG2v5Bp63q4YvGtv-70" style="edgeStyle=orthogonalEdgeStyle;rounded=0;orthogonalLoop=1;jettySize=auto;html=1;entryX=0.5;entryY=1;entryDx=0;entryDy=0;" edge="1" parent="1" source="kwaBSG2v5Bp63q4YvGtv-69" target="kwaBSG2v5Bp63q4YvGtv-72">
          <mxGeometry relative="1" as="geometry">
            <mxPoint x="782.5" y="310" as="targetPoint" />
          </mxGeometry>
        </mxCell>
        <mxCell id="kwaBSG2v5Bp63q4YvGtv-69" value="confirma envio/entrega" style="rounded=0;whiteSpace=wrap;html=1;" vertex="1" parent="1">
          <mxGeometry x="727.5" y="360" width="115" height="40" as="geometry" />
        </mxCell>
        <mxCell id="kwaBSG2v5Bp63q4YvGtv-71" value="" style="group" vertex="1" connectable="0" parent="1">
          <mxGeometry x="765" y="270" width="40" height="40" as="geometry" />
        </mxCell>
        <mxCell id="kwaBSG2v5Bp63q4YvGtv-72" value="" style="ellipse;whiteSpace=wrap;html=1;aspect=fixed;" vertex="1" parent="kwaBSG2v5Bp63q4YvGtv-71">
          <mxGeometry width="40" height="40" as="geometry" />
        </mxCell>
        <mxCell id="kwaBSG2v5Bp63q4YvGtv-73" value="" style="shape=waypoint;sketch=0;fillStyle=solid;size=6;pointerEvents=1;points=[];fillColor=none;resizable=0;rotatable=0;perimeter=centerPerimeter;snapToPoint=1;" vertex="1" parent="kwaBSG2v5Bp63q4YvGtv-71">
          <mxGeometry x="10" y="10" width="20" height="20" as="geometry" />
        </mxCell>
        <mxCell id="kwaBSG2v5Bp63q4YvGtv-76" value="" style="group" vertex="1" connectable="0" parent="1">
          <mxGeometry x="685" y="730" width="40" height="40" as="geometry" />
        </mxCell>
        <mxCell id="kwaBSG2v5Bp63q4YvGtv-77" value="" style="ellipse;whiteSpace=wrap;html=1;aspect=fixed;" vertex="1" parent="kwaBSG2v5Bp63q4YvGtv-76">
          <mxGeometry width="40" height="40" as="geometry" />
        </mxCell>
        <mxCell id="kwaBSG2v5Bp63q4YvGtv-78" value="" style="shape=waypoint;sketch=0;fillStyle=solid;size=6;pointerEvents=1;points=[];fillColor=none;resizable=0;rotatable=0;perimeter=centerPerimeter;snapToPoint=1;" vertex="1" parent="kwaBSG2v5Bp63q4YvGtv-76">
          <mxGeometry x="10" y="10" width="20" height="20" as="geometry" />
        </mxCell>
        <mxCell id="kwaBSG2v5Bp63q4YvGtv-79" value="" style="ellipse;whiteSpace=wrap;html=1;aspect=fixed;labelBackgroundColor=#000000;fillColor=#000000;" vertex="1" parent="1">
          <mxGeometry x="160" y="160" width="40" height="40" as="geometry" />
        </mxCell>
      </root>
    </mxGraphModel>
  </diagram>
</mxfile>
